<mxfile host="app.diagrams.net" agent="Mozilla/5.0 (Windows NT 10.0; Win64; x64) AppleWebKit/537.36 (KHTML, like Gecko) Chrome/131.0.0.0 Safari/537.36" version="26.0.5">
  <diagram name="Page-1" id="lZM-yYQYriFztQueQset">
    <mxGraphModel dx="794" dy="1589" grid="1" gridSize="10" guides="1" tooltips="1" connect="1" arrows="1" fold="1" page="1" pageScale="1" pageWidth="827" pageHeight="1169" math="0" shadow="0">
      <root>
        <mxCell id="0" />
        <mxCell id="1" parent="0" />
        <mxCell id="xCYvF6q1Z4s7tQrL5I1I-10" value="Customer" style="swimlane;childLayout=stackLayout;horizontal=1;startSize=50;horizontalStack=0;rounded=1;fontSize=14;fontStyle=0;strokeWidth=2;resizeParent=0;resizeLast=1;shadow=0;dashed=0;align=center;arcSize=4;whiteSpace=wrap;html=1;" parent="1" vertex="1">
          <mxGeometry x="310" y="40" width="160" height="210" as="geometry" />
        </mxCell>
        <mxCell id="xCYvF6q1Z4s7tQrL5I1I-11" value="Customer Id(PK)&lt;div&gt;First_name&lt;br&gt;Last_Name&lt;br&gt;Email&lt;/div&gt;&lt;div&gt;Phone&lt;/div&gt;&lt;div&gt;Address&lt;/div&gt;&lt;div&gt;Date_of_Birth&lt;/div&gt;&lt;div&gt;Gender&lt;/div&gt;&lt;div&gt;&lt;br&gt;&lt;/div&gt;" style="align=left;strokeColor=none;fillColor=none;spacingLeft=4;fontSize=12;verticalAlign=top;resizable=0;rotatable=0;part=1;html=1;" parent="xCYvF6q1Z4s7tQrL5I1I-10" vertex="1">
          <mxGeometry y="50" width="160" height="160" as="geometry" />
        </mxCell>
        <mxCell id="xCYvF6q1Z4s7tQrL5I1I-14" value="Loan Application" style="swimlane;childLayout=stackLayout;horizontal=1;startSize=50;horizontalStack=0;rounded=1;fontSize=14;fontStyle=0;strokeWidth=2;resizeParent=0;resizeLast=1;shadow=0;dashed=0;align=center;arcSize=4;whiteSpace=wrap;html=1;" parent="1" vertex="1">
          <mxGeometry x="540" y="280" width="160" height="190" as="geometry" />
        </mxCell>
        <mxCell id="xCYvF6q1Z4s7tQrL5I1I-15" value="Loan_Id(PK)&lt;div&gt;Loan_Type&lt;/div&gt;&lt;div&gt;Loan_Amount&lt;/div&gt;&lt;div&gt;Interest_Rate&lt;/div&gt;&lt;div&gt;Customer_Id(FK)&lt;/div&gt;" style="align=left;strokeColor=none;fillColor=none;spacingLeft=4;fontSize=12;verticalAlign=top;resizable=0;rotatable=0;part=1;html=1;" parent="xCYvF6q1Z4s7tQrL5I1I-14" vertex="1">
          <mxGeometry y="50" width="160" height="170" as="geometry" />
        </mxCell>
        <UserObject label="%name% Text" placeholders="1" name="Variable" id="xCYvF6q1Z4s7tQrL5I1I-34">
          <mxCell style="text;html=1;strokeColor=none;fillColor=none;align=center;verticalAlign=middle;whiteSpace=wrap;overflow=hidden;" parent="xCYvF6q1Z4s7tQrL5I1I-14" vertex="1">
            <mxGeometry y="220" width="160" height="-30" as="geometry" />
          </mxCell>
        </UserObject>
        <UserObject label="OnetoMany" placeholders="1" name="Variable" id="xCYvF6q1Z4s7tQrL5I1I-31">
          <mxCell style="text;html=1;strokeColor=none;fillColor=none;align=center;verticalAlign=middle;whiteSpace=wrap;overflow=hidden;" parent="1" vertex="1">
            <mxGeometry x="200" y="150" width="80" height="20" as="geometry" />
          </mxCell>
        </UserObject>
        <mxCell id="xCYvF6q1Z4s7tQrL5I1I-37" value="" style="endArrow=classic;html=1;rounded=0;" parent="1" edge="1">
          <mxGeometry width="50" height="50" relative="1" as="geometry">
            <mxPoint x="120" y="250" as="sourcePoint" />
            <mxPoint x="120" y="250" as="targetPoint" />
          </mxGeometry>
        </mxCell>
        <mxCell id="xCYvF6q1Z4s7tQrL5I1I-67" value="Loan Approval" style="swimlane;childLayout=stackLayout;horizontal=1;startSize=50;horizontalStack=0;rounded=1;fontSize=14;fontStyle=0;strokeWidth=2;resizeParent=0;resizeLast=1;shadow=0;dashed=0;align=center;arcSize=4;whiteSpace=wrap;html=1;" parent="1" vertex="1">
          <mxGeometry x="650" y="520" width="160" height="190" as="geometry" />
        </mxCell>
        <mxCell id="xCYvF6q1Z4s7tQrL5I1I-68" value="Loan_Approval_Id(PK)&lt;div&gt;Loan_Id(Fk)&lt;/div&gt;&lt;div&gt;approval_date&lt;/div&gt;&lt;div&gt;approval_amount&lt;/div&gt;&lt;div&gt;status&lt;/div&gt;&lt;div&gt;Due_Date&lt;/div&gt;" style="align=left;strokeColor=none;fillColor=none;spacingLeft=4;fontSize=12;verticalAlign=top;resizable=0;rotatable=0;part=1;html=1;" parent="xCYvF6q1Z4s7tQrL5I1I-67" vertex="1">
          <mxGeometry y="50" width="160" height="140" as="geometry" />
        </mxCell>
        <UserObject label="OneToMany" placeholders="1" name="Variable" id="xCYvF6q1Z4s7tQrL5I1I-76">
          <mxCell style="text;html=1;strokeColor=none;fillColor=none;align=center;verticalAlign=middle;whiteSpace=wrap;overflow=hidden;" parent="1" vertex="1">
            <mxGeometry x="490" y="140" width="80" height="20" as="geometry" />
          </mxCell>
        </UserObject>
        <UserObject label="OneToOne" placeholders="1" name="Variable" id="xCYvF6q1Z4s7tQrL5I1I-77">
          <mxCell style="text;html=1;strokeColor=none;fillColor=none;align=center;verticalAlign=middle;whiteSpace=wrap;overflow=hidden;" parent="1" vertex="1">
            <mxGeometry x="690" y="390" width="80" height="20" as="geometry" />
          </mxCell>
        </UserObject>
        <mxCell id="xCYvF6q1Z4s7tQrL5I1I-79" value="Document" style="swimlane;childLayout=stackLayout;horizontal=1;startSize=50;horizontalStack=0;rounded=1;fontSize=14;fontStyle=0;strokeWidth=2;resizeParent=0;resizeLast=1;shadow=0;dashed=0;align=center;arcSize=4;whiteSpace=wrap;html=1;" parent="1" vertex="1">
          <mxGeometry x="460" y="520" width="160" height="190" as="geometry" />
        </mxCell>
        <mxCell id="xCYvF6q1Z4s7tQrL5I1I-80" value="Document_Id(PK)&lt;div&gt;Loan_ApplicationId(FK)&lt;/div&gt;&lt;div&gt;Document_type&lt;/div&gt;&lt;div&gt;Document_Name&lt;/div&gt;&lt;div&gt;Document_status&lt;/div&gt;&lt;div&gt;&lt;br&gt;&lt;/div&gt;" style="align=left;strokeColor=none;fillColor=none;spacingLeft=4;fontSize=12;verticalAlign=top;resizable=0;rotatable=0;part=1;html=1;" parent="xCYvF6q1Z4s7tQrL5I1I-79" vertex="1">
          <mxGeometry y="50" width="160" height="140" as="geometry" />
        </mxCell>
        <UserObject label="OneToMany" placeholders="1" name="Variable" id="xCYvF6q1Z4s7tQrL5I1I-82">
          <mxCell style="text;html=1;strokeColor=none;fillColor=none;align=center;verticalAlign=middle;whiteSpace=wrap;overflow=hidden;" parent="1" vertex="1">
            <mxGeometry x="460" y="390" width="80" height="20" as="geometry" />
          </mxCell>
        </UserObject>
        <mxCell id="xCYvF6q1Z4s7tQrL5I1I-93" value="Transaction" style="swimlane;childLayout=stackLayout;horizontal=1;startSize=50;horizontalStack=0;rounded=1;fontSize=14;fontStyle=0;strokeWidth=2;resizeParent=0;resizeLast=1;shadow=0;dashed=0;align=center;arcSize=4;whiteSpace=wrap;html=1;" parent="1" vertex="1">
          <mxGeometry x="650" y="790" width="160" height="200" as="geometry" />
        </mxCell>
        <mxCell id="xCYvF6q1Z4s7tQrL5I1I-94" value="Transaction_Id(PK)&lt;div&gt;L_Approval_Id(FK)&lt;/div&gt;&lt;div&gt;Transaction_Date&lt;/div&gt;&lt;div&gt;Transaction_amount&lt;/div&gt;&lt;div&gt;payment_method&lt;/div&gt;&lt;div&gt;Transaction_reference&lt;/div&gt;&lt;div&gt;&lt;br&gt;&lt;/div&gt;&lt;div&gt;&lt;br&gt;&lt;/div&gt;" style="align=left;strokeColor=none;fillColor=none;spacingLeft=4;fontSize=12;verticalAlign=top;resizable=0;rotatable=0;part=1;html=1;" parent="xCYvF6q1Z4s7tQrL5I1I-93" vertex="1">
          <mxGeometry y="50" width="160" height="150" as="geometry" />
        </mxCell>
        <mxCell id="xCYvF6q1Z4s7tQrL5I1I-109" style="edgeStyle=orthogonalEdgeStyle;rounded=0;orthogonalLoop=1;jettySize=auto;html=1;exitX=0.5;exitY=1;exitDx=0;exitDy=0;" parent="1" edge="1">
          <mxGeometry relative="1" as="geometry">
            <mxPoint x="120" y="470" as="sourcePoint" />
            <mxPoint x="90" y="520" as="targetPoint" />
          </mxGeometry>
        </mxCell>
        <mxCell id="xCYvF6q1Z4s7tQrL5I1I-128" style="edgeStyle=orthogonalEdgeStyle;rounded=0;orthogonalLoop=1;jettySize=auto;html=1;exitX=0.75;exitY=1;exitDx=0;exitDy=0;" parent="1" edge="1">
          <mxGeometry relative="1" as="geometry">
            <mxPoint x="160" y="470" as="sourcePoint" />
            <mxPoint x="300" y="520" as="targetPoint" />
          </mxGeometry>
        </mxCell>
        <mxCell id="xCYvF6q1Z4s7tQrL5I1I-118" style="edgeStyle=orthogonalEdgeStyle;rounded=0;orthogonalLoop=1;jettySize=auto;html=1;" parent="1" source="xCYvF6q1Z4s7tQrL5I1I-11" target="xCYvF6q1Z4s7tQrL5I1I-14" edge="1">
          <mxGeometry relative="1" as="geometry" />
        </mxCell>
        <mxCell id="xCYvF6q1Z4s7tQrL5I1I-120" style="edgeStyle=orthogonalEdgeStyle;rounded=0;orthogonalLoop=1;jettySize=auto;html=1;entryX=0.5;entryY=0;entryDx=0;entryDy=0;" parent="1" source="xCYvF6q1Z4s7tQrL5I1I-11" edge="1">
          <mxGeometry relative="1" as="geometry">
            <mxPoint x="120" y="280" as="targetPoint" />
          </mxGeometry>
        </mxCell>
        <mxCell id="xCYvF6q1Z4s7tQrL5I1I-126" style="edgeStyle=orthogonalEdgeStyle;rounded=0;orthogonalLoop=1;jettySize=auto;html=1;" parent="1" source="xCYvF6q1Z4s7tQrL5I1I-15" edge="1">
          <mxGeometry relative="1" as="geometry">
            <mxPoint x="760" y="510" as="targetPoint" />
          </mxGeometry>
        </mxCell>
        <mxCell id="xCYvF6q1Z4s7tQrL5I1I-127" style="edgeStyle=orthogonalEdgeStyle;rounded=0;orthogonalLoop=1;jettySize=auto;html=1;" parent="1" source="xCYvF6q1Z4s7tQrL5I1I-15" edge="1">
          <mxGeometry relative="1" as="geometry">
            <mxPoint x="510" y="510" as="targetPoint" />
          </mxGeometry>
        </mxCell>
        <UserObject label="OneToMany" placeholders="1" name="Variable" id="xCYvF6q1Z4s7tQrL5I1I-132">
          <mxCell style="text;html=1;strokeColor=none;fillColor=none;align=center;verticalAlign=middle;whiteSpace=wrap;overflow=hidden;" parent="1" vertex="1">
            <mxGeometry x="650" y="740" width="80" height="20" as="geometry" />
          </mxCell>
        </UserObject>
        <UserObject label="OneToMany" placeholders="1" name="Variable" id="xCYvF6q1Z4s7tQrL5I1I-133">
          <mxCell style="text;html=1;strokeColor=none;fillColor=none;align=center;verticalAlign=middle;whiteSpace=wrap;overflow=hidden;" parent="1" vertex="1">
            <mxGeometry x="190" y="480" width="80" height="20" as="geometry" />
          </mxCell>
        </UserObject>
        <UserObject label="OneToMany" placeholders="1" name="Variable" id="xCYvF6q1Z4s7tQrL5I1I-134">
          <mxCell style="text;html=1;strokeColor=none;fillColor=none;align=center;verticalAlign=middle;whiteSpace=wrap;overflow=hidden;" parent="1" vertex="1">
            <mxGeometry x="110" y="720" width="80" height="20" as="geometry" />
          </mxCell>
        </UserObject>
        <mxCell id="JjB-6R9gmHPUE7ohi-1O-2" value="Insurance Application" style="swimlane;childLayout=stackLayout;horizontal=1;startSize=50;horizontalStack=0;rounded=1;fontSize=14;fontStyle=0;strokeWidth=2;resizeParent=0;resizeLast=1;shadow=0;dashed=0;align=center;arcSize=4;whiteSpace=wrap;html=1;" vertex="1" parent="1">
          <mxGeometry x="70" y="280" width="160" height="190" as="geometry" />
        </mxCell>
        <mxCell id="JjB-6R9gmHPUE7ohi-1O-3" value="Insurance_Id(PK)&lt;div&gt;Insurance_Type&lt;/div&gt;&lt;div&gt;Start_date&lt;/div&gt;&lt;div&gt;End_date&lt;/div&gt;&lt;div&gt;Customer_Id(FK)&lt;/div&gt;&lt;div&gt;&lt;br&gt;&lt;/div&gt;" style="align=left;strokeColor=none;fillColor=none;spacingLeft=4;fontSize=12;verticalAlign=top;resizable=0;rotatable=0;part=1;html=1;" vertex="1" parent="JjB-6R9gmHPUE7ohi-1O-2">
          <mxGeometry y="50" width="160" height="140" as="geometry" />
        </mxCell>
        <mxCell id="JjB-6R9gmHPUE7ohi-1O-6" value="Document" style="swimlane;childLayout=stackLayout;horizontal=1;startSize=50;horizontalStack=0;rounded=1;fontSize=14;fontStyle=0;strokeWidth=2;resizeParent=0;resizeLast=1;shadow=0;dashed=0;align=center;arcSize=4;whiteSpace=wrap;html=1;" vertex="1" parent="1">
          <mxGeometry x="230" y="520" width="160" height="190" as="geometry" />
        </mxCell>
        <mxCell id="JjB-6R9gmHPUE7ohi-1O-7" value="Document_Id(PK)&lt;div&gt;Insurance_applicationId(FK)&lt;/div&gt;&lt;div&gt;Document_type&lt;/div&gt;&lt;div&gt;Document_name&lt;/div&gt;&lt;div&gt;Document_status&lt;/div&gt;" style="align=left;strokeColor=none;fillColor=none;spacingLeft=4;fontSize=12;verticalAlign=top;resizable=0;rotatable=0;part=1;html=1;" vertex="1" parent="JjB-6R9gmHPUE7ohi-1O-6">
          <mxGeometry y="50" width="160" height="140" as="geometry" />
        </mxCell>
        <mxCell id="JjB-6R9gmHPUE7ohi-1O-8" value="Insurance Approval" style="swimlane;childLayout=stackLayout;horizontal=1;startSize=50;horizontalStack=0;rounded=1;fontSize=14;fontStyle=0;strokeWidth=2;resizeParent=0;resizeLast=1;shadow=0;dashed=0;align=center;arcSize=4;whiteSpace=wrap;html=1;" vertex="1" parent="1">
          <mxGeometry x="20" y="525" width="160" height="185" as="geometry" />
        </mxCell>
        <mxCell id="JjB-6R9gmHPUE7ohi-1O-9" value="Insurance_Approval_Id(PK)&lt;div&gt;Insurance_Id(FK)&lt;/div&gt;&lt;div&gt;approval_date&lt;/div&gt;&lt;div&gt;approval_status&lt;/div&gt;&lt;div&gt;&lt;br&gt;&lt;/div&gt;" style="align=left;strokeColor=none;fillColor=none;spacingLeft=4;fontSize=12;verticalAlign=top;resizable=0;rotatable=0;part=1;html=1;" vertex="1" parent="JjB-6R9gmHPUE7ohi-1O-8">
          <mxGeometry y="50" width="160" height="135" as="geometry" />
        </mxCell>
        <mxCell id="JjB-6R9gmHPUE7ohi-1O-10" style="edgeStyle=orthogonalEdgeStyle;rounded=0;orthogonalLoop=1;jettySize=auto;html=1;exitX=0.5;exitY=1;exitDx=0;exitDy=0;entryX=0.438;entryY=-0.008;entryDx=0;entryDy=0;entryPerimeter=0;" edge="1" parent="1" source="JjB-6R9gmHPUE7ohi-1O-9">
          <mxGeometry relative="1" as="geometry">
            <mxPoint x="100.08000000000004" y="779.04" as="targetPoint" />
          </mxGeometry>
        </mxCell>
        <mxCell id="JjB-6R9gmHPUE7ohi-1O-11" value="Transaction" style="swimlane;childLayout=stackLayout;horizontal=1;startSize=50;horizontalStack=0;rounded=1;fontSize=14;fontStyle=0;strokeWidth=2;resizeParent=0;resizeLast=1;shadow=0;dashed=0;align=center;arcSize=4;whiteSpace=wrap;html=1;" vertex="1" parent="1">
          <mxGeometry x="30" y="780" width="160" height="240" as="geometry" />
        </mxCell>
        <mxCell id="JjB-6R9gmHPUE7ohi-1O-12" value="Transaction_Id(PK)&lt;div&gt;Insurance_approval_Id(FK)&lt;/div&gt;&lt;div&gt;Transaction_Date&lt;/div&gt;&lt;div&gt;Transaction_amount&lt;/div&gt;&lt;div&gt;payment_method&lt;/div&gt;&lt;div&gt;Transaction_reference&lt;/div&gt;" style="align=left;strokeColor=none;fillColor=none;spacingLeft=4;fontSize=12;verticalAlign=top;resizable=0;rotatable=0;part=1;html=1;" vertex="1" parent="JjB-6R9gmHPUE7ohi-1O-11">
          <mxGeometry y="50" width="160" height="190" as="geometry" />
        </mxCell>
        <mxCell id="JjB-6R9gmHPUE7ohi-1O-13" value="Notifications" style="swimlane;childLayout=stackLayout;horizontal=1;startSize=50;horizontalStack=0;rounded=1;fontSize=14;fontStyle=0;strokeWidth=2;resizeParent=0;resizeLast=1;shadow=0;dashed=0;align=center;arcSize=4;whiteSpace=wrap;html=1;" vertex="1" parent="1">
          <mxGeometry x="340" y="880" width="160" height="230" as="geometry" />
        </mxCell>
        <mxCell id="JjB-6R9gmHPUE7ohi-1O-14" value="Notification_Id(PK)&lt;div&gt;Customer_Id(FK)&lt;/div&gt;&lt;div&gt;Message&lt;/div&gt;&lt;div&gt;status&lt;/div&gt;&lt;div&gt;Notification_Type&lt;/div&gt;&lt;div&gt;Send_Date&lt;/div&gt;" style="align=left;strokeColor=none;fillColor=none;spacingLeft=4;fontSize=12;verticalAlign=top;resizable=0;rotatable=0;part=1;html=1;" vertex="1" parent="JjB-6R9gmHPUE7ohi-1O-13">
          <mxGeometry y="50" width="160" height="180" as="geometry" />
        </mxCell>
        <mxCell id="JjB-6R9gmHPUE7ohi-1O-16" value="OneToOne" style="text;html=1;align=center;verticalAlign=middle;whiteSpace=wrap;rounded=0;" vertex="1" parent="1">
          <mxGeometry x="20" y="480" width="60" height="30" as="geometry" />
        </mxCell>
        <mxCell id="JjB-6R9gmHPUE7ohi-1O-19" style="edgeStyle=orthogonalEdgeStyle;rounded=0;orthogonalLoop=1;jettySize=auto;html=1;exitX=1;exitY=0.5;exitDx=0;exitDy=0;entryX=0.025;entryY=0.461;entryDx=0;entryDy=0;entryPerimeter=0;" edge="1" parent="1" source="JjB-6R9gmHPUE7ohi-1O-12" target="JjB-6R9gmHPUE7ohi-1O-14">
          <mxGeometry relative="1" as="geometry" />
        </mxCell>
        <mxCell id="JjB-6R9gmHPUE7ohi-1O-20" style="edgeStyle=orthogonalEdgeStyle;rounded=0;orthogonalLoop=1;jettySize=auto;html=1;exitX=0;exitY=0.5;exitDx=0;exitDy=0;entryX=1.006;entryY=0.417;entryDx=0;entryDy=0;entryPerimeter=0;" edge="1" parent="1" source="xCYvF6q1Z4s7tQrL5I1I-94" target="JjB-6R9gmHPUE7ohi-1O-14">
          <mxGeometry relative="1" as="geometry" />
        </mxCell>
        <mxCell id="JjB-6R9gmHPUE7ohi-1O-21" style="edgeStyle=orthogonalEdgeStyle;rounded=0;orthogonalLoop=1;jettySize=auto;html=1;exitX=0.5;exitY=1;exitDx=0;exitDy=0;entryX=0.5;entryY=0;entryDx=0;entryDy=0;" edge="1" parent="1" source="xCYvF6q1Z4s7tQrL5I1I-68" target="xCYvF6q1Z4s7tQrL5I1I-93">
          <mxGeometry relative="1" as="geometry" />
        </mxCell>
        <mxCell id="JjB-6R9gmHPUE7ohi-1O-22" value="OneToOne" style="text;html=1;align=center;verticalAlign=middle;whiteSpace=wrap;rounded=0;" vertex="1" parent="1">
          <mxGeometry x="560" y="860" width="60" height="30" as="geometry" />
        </mxCell>
        <mxCell id="JjB-6R9gmHPUE7ohi-1O-23" value="OneToOne" style="text;html=1;align=center;verticalAlign=middle;whiteSpace=wrap;rounded=0;" vertex="1" parent="1">
          <mxGeometry x="230" y="885" width="60" height="30" as="geometry" />
        </mxCell>
        <mxCell id="JjB-6R9gmHPUE7ohi-1O-27" value="Users&lt;div&gt;&lt;br&gt;&lt;/div&gt;" style="swimlane;childLayout=stackLayout;horizontal=1;startSize=50;horizontalStack=0;rounded=1;fontSize=14;fontStyle=0;strokeWidth=2;resizeParent=0;resizeLast=1;shadow=0;dashed=0;align=center;arcSize=4;whiteSpace=wrap;html=1;" vertex="1" parent="1">
          <mxGeometry x="150" y="-280" width="160" height="280" as="geometry" />
        </mxCell>
        <mxCell id="JjB-6R9gmHPUE7ohi-1O-28" value="User ID&lt;div&gt;Username&lt;/div&gt;&lt;div&gt;Email&lt;/div&gt;&lt;div&gt;Password&lt;/div&gt;&lt;div&gt;Full Name&lt;/div&gt;&lt;div&gt;Phone Number&lt;/div&gt;&lt;div&gt;Profile Picture&lt;/div&gt;&lt;div&gt;Date of Birth&lt;/div&gt;&lt;div&gt;Status&lt;/div&gt;&lt;div&gt;Role(s)&lt;/div&gt;&lt;div&gt;Permissions&lt;/div&gt;&lt;div&gt;Address&lt;/div&gt;&lt;div&gt;&lt;br&gt;&lt;/div&gt;" style="align=left;strokeColor=none;fillColor=none;spacingLeft=4;fontSize=12;verticalAlign=top;resizable=0;rotatable=0;part=1;html=1;" vertex="1" parent="JjB-6R9gmHPUE7ohi-1O-27">
          <mxGeometry y="50" width="160" height="230" as="geometry" />
        </mxCell>
        <mxCell id="JjB-6R9gmHPUE7ohi-1O-29" value="Roles&lt;div&gt;&lt;br&gt;&lt;/div&gt;" style="swimlane;childLayout=stackLayout;horizontal=1;startSize=50;horizontalStack=0;rounded=1;fontSize=14;fontStyle=0;strokeWidth=2;resizeParent=0;resizeLast=1;shadow=0;dashed=0;align=center;arcSize=4;whiteSpace=wrap;html=1;" vertex="1" parent="1">
          <mxGeometry x="410" y="-280" width="160" height="270" as="geometry" />
        </mxCell>
        <mxCell id="JjB-6R9gmHPUE7ohi-1O-30" value="Role ID&lt;div&gt;Role Name&lt;br&gt;&lt;div&gt;&lt;br&gt;&lt;/div&gt;&lt;/div&gt;" style="align=left;strokeColor=none;fillColor=none;spacingLeft=4;fontSize=12;verticalAlign=top;resizable=0;rotatable=0;part=1;html=1;" vertex="1" parent="JjB-6R9gmHPUE7ohi-1O-29">
          <mxGeometry y="50" width="160" height="220" as="geometry" />
        </mxCell>
      </root>
    </mxGraphModel>
  </diagram>
</mxfile>
